<svg width="40" height="40" fill="none" xmlns="http://www.w3.org/2000/svg"><path d="M36.784 23.438a14.936 14.936 0 0 1-3.501 1.682c-4.586 1.524-9.777.69-13.574-2.3a16.09 16.09 0 0 1-2.529-2.529c-2.99-3.797-3.824-8.988-2.3-13.574a14.904 14.904 0 0 1 1.683-3.5A2.055 2.055 0 0 0 14.2.11 20.43 20.43 0 1 0 39.889 25.8a2.054 2.054 0 0 0-3.105-2.362Z" fill="#fff"/><path d="M36.784 23.438a14.936 14.936 0 0 1-3.501 1.682c-4.586 1.524-9.777.69-13.574-2.3a16.09 16.09 0 0 1-2.529-2.529c-2.99-3.797-3.824-8.988-2.3-13.574a14.904 14.904 0 0 1 1.683-3.5A2.055 2.055 0 0 0 14.2.11 20.43 20.43 0 1 0 39.889 25.8a2.054 2.054 0 0 0-3.105-2.362Z" fill="url('#paint0_linear_9_394')"/><defs><linearGradient id="paint0_linear_9_394" x1="0" y1="0" x2="40" y2="40" gradientUnits="userSpaceOnUse"><stop stop-color="#A1C4FD"/><stop offset="1" stop-color="#C2E9FB"/></linearGradient></defs></svg>