<svg width="40" height="40" fill="none" xmlns="http://www.w3.org/2000/svg"><path d="M20 29.09a9.09 9.09 0 1 0 0-18.18 9.09 9.09 0 0 0 0 18.18Z" fill="url('#paint0_linear_9_369')"/><path d="M20 6.667a1.818 1.818 0 0 0 1.818-1.819v-3.03a1.818 1.818 0 0 0-3.636 0v3.03A1.818 1.818 0 0 0 20 6.667Z" fill="url('#paint1_linear_9_369')"/><path d="M8 10.572A1.819 1.819 0 0 0 10.573 8L8.429 5.858A1.818 1.818 0 0 0 5.86 8.43L8 10.572Z" fill="url('#paint2_linear_9_369')"/><path d="M6.667 20a1.818 1.818 0 0 0-1.819-1.818h-3.03a1.818 1.818 0 0 0 0 3.636h3.03A1.818 1.818 0 0 0 6.667 20Z" fill="url('#paint3_linear_9_369')"/><path d="m8 29.428-2.142 2.143a1.818 1.818 0 1 0 2.571 2.571L10.572 32a1.82 1.82 0 0 0 0-2.57 1.819 1.819 0 0 0-2.571 0Z" fill="url('#paint4_linear_9_369')"/><path d="M20 33.333a1.818 1.818 0 0 0-1.818 1.819v3.03a1.818 1.818 0 0 0 3.636 0v-3.03A1.818 1.818 0 0 0 20 33.333Z" fill="url('#paint5_linear_9_369')"/><path d="M32 29.428A1.818 1.818 0 0 0 29.427 32l2.143 2.143a1.82 1.82 0 0 0 3.103-1.285 1.818 1.818 0 0 0-.532-1.286l-2.143-2.143Z" fill="url('#paint6_linear_9_369')"/><path d="M40 20a1.818 1.818 0 0 0-1.818-1.818h-3.03a1.818 1.818 0 0 0 0 3.636h3.03A1.818 1.818 0 0 0 40 20Z" fill="url('#paint7_linear_9_369')"/><path d="M30.714 11.104a1.81 1.81 0 0 0 1.285-.532l2.143-2.143a1.818 1.818 0 1 0-2.571-2.57L29.428 8a1.817 1.817 0 0 0 1.286 3.103Z" fill="url('#paint8_linear_9_369')"/><defs><linearGradient id="paint0_linear_9_369" x1="10.909" y1="10.909" x2="29.091" y2="29.091" gradientUnits="userSpaceOnUse"><stop stop-color="#F6D365"/><stop offset="1" stop-color="#FDA085"/></linearGradient><linearGradient id="paint1_linear_9_369" x1="18.182" y1="0" x2="23.787" y2="3.057" gradientUnits="userSpaceOnUse"><stop stop-color="#F6D365"/><stop offset="1" stop-color="#FDA085"/></linearGradient><linearGradient id="paint2_linear_9_369" x1="5.326" y1="5.326" x2="11.104" y2="11.104" gradientUnits="userSpaceOnUse"><stop stop-color="#F6D365"/><stop offset="1" stop-color="#FDA085"/></linearGradient><linearGradient id="paint3_linear_9_369" x1="0" y1="18.182" x2="3.057" y2="23.787" gradientUnits="userSpaceOnUse"><stop stop-color="#F6D365"/><stop offset="1" stop-color="#FDA085"/></linearGradient><linearGradient id="paint4_linear_9_369" x1="5.326" y1="28.896" x2="11.105" y2="34.674" gradientUnits="userSpaceOnUse"><stop stop-color="#F6D365"/><stop offset="1" stop-color="#FDA085"/></linearGradient><linearGradient id="paint5_linear_9_369" x1="18.182" y1="33.333" x2="23.787" y2="36.391" gradientUnits="userSpaceOnUse"><stop stop-color="#F6D365"/><stop offset="1" stop-color="#FDA085"/></linearGradient><linearGradient id="paint6_linear_9_369" x1="28.896" y1="28.896" x2="34.675" y2="34.674" gradientUnits="userSpaceOnUse"><stop stop-color="#F6D365"/><stop offset="1" stop-color="#FDA085"/></linearGradient><linearGradient id="paint7_linear_9_369" x1="33.333" y1="18.182" x2="36.391" y2="23.787" gradientUnits="userSpaceOnUse"><stop stop-color="#F6D365"/><stop offset="1" stop-color="#FDA085"/></linearGradient><linearGradient id="paint8_linear_9_369" x1="28.896" y1="5.326" x2="34.675" y2="11.104" gradientUnits="userSpaceOnUse"><stop stop-color="#F6D365"/><stop offset="1" stop-color="#FDA085"/></linearGradient></defs></svg>