<svg width="40" height="40" viewBox="0 0 40 40" fill="none" xmlns="http://www.w3.org/2000/svg">
<path d="M36.7837 23.4381C35.695 24.1488 34.5181 24.7142 33.2829 25.1202C28.6969 26.6442 23.5065 25.8104 19.7094 22.8202C18.7749 22.0737 17.9266 21.2255 17.1801 20.291C14.1899 16.4937 13.3561 11.3033 14.8801 6.71676C15.2859 5.48167 15.8516 4.30498 16.5627 3.21666C16.8068 2.8603 16.9324 2.43607 16.9217 2.00424C16.911 1.57241 16.7645 1.15493 16.5031 0.811104C16.2416 0.467274 15.8784 0.214581 15.4651 0.0889054C15.0519 -0.0367696 14.6095 -0.0290337 14.2009 0.111019C10.8646 1.17924 7.859 3.08736 5.4728 5.65212C3.0866 8.21689 1.39994 11.3521 0.574823 14.7567C-0.250297 18.1613 -0.186161 21.7208 0.761078 25.0935C1.70832 28.4661 3.50683 31.5386 5.98389 34.0157C8.46094 36.4928 11.5333 38.2914 14.9059 39.2388C18.2785 40.1861 21.8381 40.2503 25.2426 39.4253C28.6472 38.6003 31.7825 36.9137 34.3473 34.5275C36.9121 32.1414 38.8203 29.1358 39.8886 25.7995C40.0289 25.391 40.0369 24.9486 39.9113 24.5352C39.7858 24.1218 39.5331 23.7586 39.1893 23.4971C38.8455 23.2355 38.4279 23.0891 37.9961 23.0785C37.5642 23.0679 37.14 23.1937 36.7837 23.4381Z" fill="white"/>
<path d="M36.7837 23.4381C35.695 24.1488 34.5181 24.7142 33.2829 25.1202C28.6969 26.6442 23.5065 25.8104 19.7094 22.8202C18.7749 22.0737 17.9266 21.2255 17.1801 20.291C14.1899 16.4937 13.3561 11.3033 14.8801 6.71676C15.2859 5.48167 15.8516 4.30498 16.5627 3.21666C16.8068 2.8603 16.9324 2.43607 16.9217 2.00424C16.911 1.57241 16.7645 1.15493 16.5031 0.811104C16.2416 0.467274 15.8784 0.214581 15.4651 0.0889054C15.0519 -0.0367696 14.6095 -0.0290337 14.2009 0.111019C10.8646 1.17924 7.859 3.08736 5.4728 5.65212C3.0866 8.21689 1.39994 11.3521 0.574823 14.7567C-0.250297 18.1613 -0.186161 21.7208 0.761078 25.0935C1.70832 28.4661 3.50683 31.5386 5.98389 34.0157C8.46094 36.4928 11.5333 38.2914 14.9059 39.2388C18.2785 40.1861 21.8381 40.2503 25.2426 39.4253C28.6472 38.6003 31.7825 36.9137 34.3473 34.5275C36.9121 32.1414 38.8203 29.1358 39.8886 25.7995C40.0289 25.391 40.0369 24.9486 39.9113 24.5352C39.7858 24.1218 39.5331 23.7586 39.1893 23.4971C38.8455 23.2355 38.4279 23.0891 37.9961 23.0785C37.5642 23.0679 37.14 23.1937 36.7837 23.4381Z" fill="url(#paint0_linear_9_394)"/>
<defs>
<linearGradient id="paint0_linear_9_394" x1="0" y1="0" x2="40" y2="40" gradientUnits="userSpaceOnUse">
<stop stop-color="#A1C4FD"/>
<stop offset="1" stop-color="#C2E9FB"/>
</linearGradient>
</defs>
</svg>
