<svg width="40" height="40" viewBox="0 0 40 40" fill="none" xmlns="http://www.w3.org/2000/svg">
<path d="M20 29.0909C25.0208 29.0909 29.0909 25.0208 29.0909 20C29.0909 14.9792 25.0208 10.9091 20 10.9091C14.9792 10.9091 10.9091 14.9792 10.9091 20C10.9091 25.0208 14.9792 29.0909 20 29.0909Z" fill="url(#paint0_linear_9_369)"/>
<path d="M20 6.66667C20.4822 6.66665 20.9447 6.47508 21.2856 6.13411C21.6266 5.79314 21.8182 5.33069 21.8182 4.84849V1.81818C21.8182 1.33597 21.6266 0.873509 21.2857 0.532533C20.9447 0.191558 20.4822 0 20 0C19.5178 0 19.0553 0.191558 18.7144 0.532533C18.3734 0.873509 18.1818 1.33597 18.1818 1.81818V4.84849C18.1818 5.33069 18.3734 5.79314 18.7144 6.13411C19.0554 6.47508 19.5178 6.66665 20 6.66667Z" fill="url(#paint1_linear_9_369)"/>
<path d="M8.00073 10.5718C8.16955 10.7406 8.36997 10.8745 8.59054 10.9659C8.81112 11.0572 9.04753 11.1042 9.28627 11.1042C9.52502 11.1042 9.76143 11.0572 9.982 10.9659C10.2026 10.8745 10.403 10.7406 10.5718 10.5718C10.7406 10.4029 10.8746 10.2025 10.9659 9.98194C11.0573 9.76137 11.1043 9.52496 11.1043 9.28621C11.1043 9.04747 11.0573 8.81106 10.9659 8.59048C10.8746 8.36991 10.7406 8.16949 10.5718 8.00067L8.42923 5.85821C8.08828 5.51727 7.62586 5.32574 7.1437 5.32574C6.66153 5.32575 6.19912 5.5173 5.85818 5.85824C5.51724 6.19919 5.32571 6.66161 5.32571 7.14378C5.32572 7.62594 5.51727 8.08835 5.85821 8.42929L8.00073 10.5718Z" fill="url(#paint2_linear_9_369)"/>
<path d="M6.66667 20C6.66664 19.5178 6.47508 19.0554 6.13411 18.7144C5.79314 18.3734 5.33069 18.1818 4.84849 18.1818H1.81818C1.33597 18.1818 0.873509 18.3734 0.532533 18.7144C0.191558 19.0553 0 19.5178 0 20C0 20.4822 0.191558 20.9447 0.532533 21.2857C0.873509 21.6266 1.33597 21.8182 1.81818 21.8182H4.84849C5.33069 21.8182 5.79314 21.6266 6.13411 21.2856C6.47508 20.9447 6.66665 20.4822 6.66667 20Z" fill="url(#paint3_linear_9_369)"/>
<path d="M8.00072 29.4283L5.8582 31.5714C5.68938 31.7402 5.55547 31.9406 5.4641 32.1612C5.37274 32.3818 5.32571 32.6182 5.32571 32.8569C5.32571 33.0957 5.37274 33.3321 5.4641 33.5527C5.55547 33.7732 5.68938 33.9737 5.8582 34.1425C6.19915 34.4834 6.66157 34.675 7.14374 34.675C7.38249 34.675 7.6189 34.6279 7.83948 34.5366C8.06005 34.4452 8.26047 34.3113 8.42929 34.1425L10.5718 31.9994C10.7406 31.8305 10.8745 31.6301 10.9659 31.4096C11.0573 31.189 11.1043 30.9526 11.1043 30.7138C11.1043 30.4751 11.0573 30.2387 10.9659 30.0181C10.8746 29.7975 10.7407 29.5971 10.5718 29.4283C10.403 29.2595 10.2026 29.1256 9.98204 29.0342C9.76147 28.9428 9.52507 28.8958 9.28632 28.8958C9.04758 28.8958 8.81117 28.9428 8.5906 29.0342C8.37003 29.1256 8.16954 29.2595 8.00072 29.4283Z" fill="url(#paint4_linear_9_369)"/>
<path d="M20 33.3334C19.5178 33.3334 19.0554 33.525 18.7144 33.8659C18.3734 34.2069 18.1819 34.6694 18.1818 35.1516V38.1819C18.1818 38.6641 18.3734 39.1265 18.7144 39.4675C19.0553 39.8085 19.5178 40 20 40C20.4822 40 20.9447 39.8085 21.2857 39.4675C21.6266 39.1265 21.8182 38.6641 21.8182 38.1819V35.1516C21.8182 34.6694 21.6266 34.2069 21.2856 33.8659C20.9447 33.525 20.4822 33.3334 20 33.3334Z" fill="url(#paint5_linear_9_369)"/>
<path d="M31.9993 29.4283C31.8305 29.2595 31.6301 29.1256 31.4095 29.0342C31.1889 28.9428 30.9525 28.8958 30.7138 28.8958C30.475 28.8958 30.2386 28.9428 30.018 29.0342C29.7974 29.1256 29.597 29.2595 29.4282 29.4283C29.2594 29.5971 29.1255 29.7975 29.0341 30.0181C28.9427 30.2387 28.8957 30.4751 28.8957 30.7138C28.8957 30.9526 28.9427 31.189 29.0341 31.4096C29.1255 31.6301 29.2594 31.8306 29.4282 31.9994L31.5707 34.1425C31.7395 34.3113 31.94 34.4452 32.1605 34.5366C32.3811 34.628 32.6175 34.675 32.8563 34.675C33.095 34.675 33.3314 34.628 33.552 34.5366C33.7726 34.4452 33.973 34.3113 34.1418 34.1425C34.3106 33.9737 34.4445 33.7733 34.5359 33.5527C34.6273 33.3321 34.6743 33.0957 34.6743 32.857C34.6743 32.6182 34.6273 32.3818 34.5359 32.1612C34.4445 31.9407 34.3106 31.7402 34.1418 31.5714L31.9993 29.4283Z" fill="url(#paint6_linear_9_369)"/>
<path d="M40 20C40 19.5178 39.8084 19.0554 39.4675 18.7144C39.1265 18.3734 38.664 18.1818 38.1818 18.1818H35.1515C34.6693 18.1818 34.2069 18.3734 33.8659 18.7144C33.5249 19.0553 33.3333 19.5178 33.3333 20C33.3333 20.4822 33.5249 20.9447 33.8659 21.2857C34.2069 21.6266 34.6693 21.8182 35.1515 21.8182H38.1818C38.664 21.8182 39.1265 21.6266 39.4675 21.2856C39.8084 20.9447 40 20.4822 40 20Z" fill="url(#paint7_linear_9_369)"/>
<path d="M30.7138 11.1044C30.9526 11.1047 31.1891 11.0578 31.4097 10.9663C31.6303 10.8749 31.8307 10.7408 31.9993 10.5717L34.1418 8.4292C34.4828 8.08825 34.6743 7.62583 34.6743 7.14365C34.6743 6.66148 34.4828 6.19906 34.1418 5.85811C33.8009 5.51716 33.3385 5.32562 32.8563 5.32562C32.3741 5.32562 31.9117 5.51716 31.5708 5.85811L29.4283 8.00069C29.174 8.25496 29.0009 8.57891 28.9308 8.93157C28.8607 9.28423 28.8967 9.64977 29.0343 9.98197C29.1719 10.3142 29.4049 10.5981 29.7038 10.7979C30.0028 10.9977 30.3542 11.1043 30.7138 11.1044Z" fill="url(#paint8_linear_9_369)"/>
<defs>
<linearGradient id="paint0_linear_9_369" x1="10.9091" y1="10.9091" x2="29.0909" y2="29.0909" gradientUnits="userSpaceOnUse">
<stop stop-color="#F6D365"/>
<stop offset="1" stop-color="#FDA085"/>
</linearGradient>
<linearGradient id="paint1_linear_9_369" x1="18.1818" y1="0" x2="23.7869" y2="3.05733" gradientUnits="userSpaceOnUse">
<stop stop-color="#F6D365"/>
<stop offset="1" stop-color="#FDA085"/>
</linearGradient>
<linearGradient id="paint2_linear_9_369" x1="5.32571" y1="5.32574" x2="11.1042" y2="11.1043" gradientUnits="userSpaceOnUse">
<stop stop-color="#F6D365"/>
<stop offset="1" stop-color="#FDA085"/>
</linearGradient>
<linearGradient id="paint3_linear_9_369" x1="0" y1="18.1818" x2="3.05733" y2="23.7869" gradientUnits="userSpaceOnUse">
<stop stop-color="#F6D365"/>
<stop offset="1" stop-color="#FDA085"/>
</linearGradient>
<linearGradient id="paint4_linear_9_369" x1="5.32571" y1="28.8958" x2="11.1049" y2="34.6744" gradientUnits="userSpaceOnUse">
<stop stop-color="#F6D365"/>
<stop offset="1" stop-color="#FDA085"/>
</linearGradient>
<linearGradient id="paint5_linear_9_369" x1="18.1818" y1="33.3334" x2="23.7869" y2="36.3907" gradientUnits="userSpaceOnUse">
<stop stop-color="#F6D365"/>
<stop offset="1" stop-color="#FDA085"/>
</linearGradient>
<linearGradient id="paint6_linear_9_369" x1="28.8957" y1="28.8958" x2="34.6749" y2="34.6744" gradientUnits="userSpaceOnUse">
<stop stop-color="#F6D365"/>
<stop offset="1" stop-color="#FDA085"/>
</linearGradient>
<linearGradient id="paint7_linear_9_369" x1="33.3333" y1="18.1818" x2="36.3907" y2="23.7869" gradientUnits="userSpaceOnUse">
<stop stop-color="#F6D365"/>
<stop offset="1" stop-color="#FDA085"/>
</linearGradient>
<linearGradient id="paint8_linear_9_369" x1="28.8959" y1="5.32562" x2="34.6746" y2="11.1041" gradientUnits="userSpaceOnUse">
<stop stop-color="#F6D365"/>
<stop offset="1" stop-color="#FDA085"/>
</linearGradient>
</defs>
</svg>
